<svg id="Layer_3" enable-background="new 0 0 64 64" height="512" viewBox="0 0 64 64" width="512" xmlns="http://www.w3.org/2000/svg"><g><path d="m50 1h-36c-.553 0-1 .447-1 1v48c0 .553.447 1 1 1h11v6h-3c-.553 0-1 .447-1 1v4c0 .553.447 1 1 1h20c.553 0 1-.447 1-1v-4c0-.553-.447-1-1-1h-3v-6h11c.553 0 1-.447 1-1v-48c0-.553-.447-1-1-1zm-9 60h-18v-2h18zm-4-4h-10v-6h10zm12-8h-34v-46h34z"/><path d="m18 47h28c.553 0 1-.447 1-1v-40c0-.553-.447-1-1-1h-28c-.553 0-1 .447-1 1v40c0 .553.447 1 1 1zm1-40h26v38h-26z"/><path d="m22 23.041h20c.404 0 .769-.243.924-.616.154-.374.069-.804-.216-1.09l-8-8.027c-.375-.377-1.041-.377-1.416 0l-4.292 4.306-1.292-1.296c-.375-.377-1.041-.377-1.416 0l-5 5.017c-.285.286-.37.716-.216 1.09.155.373.52.616.924.616zm12-7.61 5.592 5.61h-7.177l-2.003-2.01zm-7 3.01 2.592 2.6h-5.184z"/><path d="m27 15.014c1.654 0 3-1.349 3-3.007s-1.346-3.007-3-3.007-3 1.349-3 3.007 1.346 3.007 3 3.007zm0-4.014c.552 0 1 .452 1 1.007s-.448 1.007-1 1.007-1-.452-1-1.007.448-1.007 1-1.007z"/><path d="m42 25h-20c-.553 0-1 .447-1 1v8c0 .553.447 1 1 1h20c.553 0 1-.447 1-1v-8c0-.553-.447-1-1-1zm-1 8h-18v-6h18z"/><path d="m25 29h14v2h-14z"/><path d="m21 37h22v2h-22z"/><path d="m21 41h22v2h-22z"/></g></svg>